<svg width="20" height="20" viewBox="0 0 20 20" fill="none" xmlns="http://www.w3.org/2000/svg">
<path d="M9.87008 17.29C13.8962 17.29 17.1601 14.0261 17.1601 9.99996C17.1601 5.9738 13.8962 2.70996 9.87008 2.70996C5.84392 2.70996 2.58008 5.9738 2.58008 9.99996C2.58008 14.0261 5.84392 17.29 9.87008 17.29Z" stroke="white" stroke-width="1.5" stroke-linecap="round" stroke-linejoin="round"/>
<path d="M8.12988 12.77C8.8418 13.636 10.1067 13.7941 11.0099 13.13C11.3498 12.8972 11.5709 12.5275 11.6152 12.1179C11.6594 11.7083 11.5223 11.2999 11.2399 11C10.5899 10.3 8.99988 9.65996 8.37988 8.90996C7.98354 8.29262 8.10302 7.47756 8.65988 6.99996C9.04632 6.64357 9.56141 6.46024 10.0861 6.49232C10.6108 6.52441 11.0997 6.76914 11.4399 7.16996" stroke="white" stroke-width="1.5" stroke-linecap="round" stroke-linejoin="round"/>
<path d="M10.4199 6.58984C10.9722 6.58984 11.4199 6.14213 11.4199 5.58984C11.4199 5.03756 10.9722 4.58984 10.4199 4.58984C9.86764 4.58984 9.41992 5.03756 9.41992 5.58984C9.41992 6.14213 9.86764 6.58984 10.4199 6.58984Z" fill="white"/>
<path d="M10.29 15.41C10.8423 15.41 11.29 14.9622 11.29 14.41C11.29 13.8577 10.8423 13.41 10.29 13.41C9.73775 13.41 9.29004 13.8577 9.29004 14.41C9.29004 14.9622 9.73775 15.41 10.29 15.41Z" fill="white"/>
</svg>
