<svg width="20" height="20" viewBox="0 0 20 20" fill="none" xmlns="http://www.w3.org/2000/svg">
<path d="M10 1.8999C11.1046 1.8999 12 2.79533 12 3.8999V3.9999C12.0033 4.16702 12.1054 4.31626 12.26 4.3799C12.4115 4.45313 12.593 4.42088 12.71 4.2999C13.0981 3.92192 13.6183 3.71024 14.16 3.7099C14.7 3.70411 15.2193 3.9169 15.6 4.2999C15.9807 4.68696 16.1959 5.20698 16.2 5.7499C16.2032 6.29133 15.9867 6.81091 15.6 7.1899C15.4767 7.30928 15.4408 7.49285 15.51 7.6499C15.5157 7.69305 15.5157 7.73675 15.51 7.7799C15.5832 7.89107 15.7069 7.95854 15.84 7.9599H15.96C17.0867 7.9599 18 8.87324 18 9.9999C18 11.1266 17.0867 12.0399 15.96 12.0399H16C15.836 12.0439 15.6886 12.1409 15.62 12.2899C15.5451 12.4445 15.5773 12.6297 15.7 12.7499C16.078 13.138 16.2897 13.6582 16.29 14.1999C16.2958 14.7399 16.083 15.2592 15.7 15.6399C15.3129 16.0206 14.7929 16.2358 14.25 16.2399C13.7086 16.2431 13.189 16.0266 12.81 15.6399C12.6913 15.5143 12.5041 15.4817 12.35 15.5599C12.197 15.62 12.0947 15.7656 12.09 15.9299V16.0499C12.09 17.1766 11.1767 18.0899 10.05 18.0899C8.92334 18.0899 8.01 17.1766 8.01 16.0499C8.00325 15.866 7.8776 15.708 7.7 15.6599C7.54845 15.5867 7.36702 15.6189 7.25 15.7399C6.86194 16.1179 6.34172 16.3296 5.8 16.3299C5.26003 16.3357 4.74067 16.1229 4.36 15.7399C3.97925 15.3528 3.76407 14.8328 3.76 14.2899C3.75684 13.7485 3.97333 13.2289 4.36 12.8499C4.48564 12.7312 4.5182 12.544 4.44 12.3899C4.37993 12.2369 4.2343 12.1346 4.07 12.1299H3.94C2.79953 12.1299 1.875 11.2054 1.875 10.0649C1.875 8.92443 2.79953 7.9999 3.94 7.9999H4C4.18387 7.99315 4.34194 7.86751 4.39 7.6899C4.46323 7.53835 4.43098 7.35692 4.31 7.2399C3.93202 6.85184 3.72034 6.33162 3.72 5.7899C3.7142 5.24994 3.927 4.73057 4.31 4.3499C4.69705 3.96916 5.21708 3.75397 5.76 3.7499C6.30143 3.74674 6.821 3.96323 7.2 4.3499C7.31938 4.47323 7.50294 4.50915 7.66 4.4399L7.79 4.3899C7.91268 4.32396 7.99222 4.19896 8 4.0599V3.9399C7.98925 3.40257 8.19521 2.88353 8.57145 2.49976C8.9477 2.11599 9.46256 1.8999 10 1.8999ZM10 3.2899C9.64102 3.2899 9.35 3.58092 9.35 3.9399V4.0599C9.34667 4.7805 8.91389 5.42967 8.25 5.7099H8.07C7.42054 5.93431 6.70001 5.77161 6.21 5.2899C6.08734 5.16897 5.92225 5.10078 5.75 5.0999C5.57731 5.09858 5.41142 5.1671 5.29 5.2899C5.16253 5.40894 5.09012 5.5755 5.09 5.7499C5.08762 5.92482 5.16046 6.09234 5.29 6.2099C5.82034 6.73263 5.97167 7.52909 5.67 8.2099C5.41339 8.91406 4.74935 9.38723 4 9.3999H3.94C3.58101 9.3999 3.29 9.69092 3.29 10.0499C3.29 10.4105 3.5794 10.7044 3.94 10.7099H4.06C4.77582 10.7098 5.42367 11.1338 5.71 11.7899C6.00262 12.47 5.85657 13.2595 5.34 13.7899C5.21907 13.9126 5.15088 14.0777 5.15 14.2499C5.14868 14.4226 5.2172 14.5885 5.34 14.7099C5.45904 14.8374 5.62559 14.9098 5.8 14.9099C5.97492 14.9123 6.14244 14.8394 6.26 14.7099C6.78273 14.1796 7.57919 14.0282 8.26 14.3299C8.9445 14.6026 9.39534 15.2631 9.4 15.9999V16.0599C9.4 16.4189 9.69102 16.7099 10.05 16.7099C10.4106 16.7099 10.7045 16.4205 10.71 16.0599V15.9399C10.7099 15.2241 11.1339 14.5762 11.79 14.2899C12.4701 13.9973 13.2596 14.1433 13.79 14.6599C13.9127 14.7808 14.0777 14.849 14.25 14.8499C14.4227 14.8512 14.5886 14.7827 14.71 14.6599C14.8375 14.5409 14.9099 14.3743 14.91 14.1999C14.9124 14.025 14.8395 13.8575 14.71 13.7399C14.201 13.2175 14.0531 12.4417 14.3341 11.7687C14.6151 11.0957 15.2707 10.6554 16 10.6499H16.06C16.419 10.6499 16.71 10.3589 16.71 9.9999C16.71 9.64092 16.419 9.3499 16.06 9.3499H15.94C15.2194 9.34657 14.5702 8.91379 14.29 8.2499C14.2846 8.19002 14.2846 8.12978 14.29 8.0699C14.0656 7.42044 14.2283 6.69992 14.71 6.2099C14.8309 6.08724 14.8991 5.92215 14.9 5.7499C14.9013 5.57721 14.8328 5.41132 14.71 5.2899C14.591 5.16244 14.4244 5.09002 14.25 5.0899C14.0751 5.08753 13.9076 5.16036 13.79 5.2899C13.2636 5.81417 12.4691 5.96114 11.79 5.6599C11.1123 5.38419 10.664 4.73136 10.65 3.9999V3.9399C10.65 3.58092 10.359 3.2899 10 3.2899Z" fill="white"/>
<path d="M10 12.48C11.3697 12.48 12.48 11.3697 12.48 10C12.48 8.63035 11.3697 7.52002 10 7.52002C8.63035 7.52002 7.52002 8.63035 7.52002 10C7.52002 11.3697 8.63035 12.48 10 12.48Z" stroke="white" stroke-width="1.37" stroke-linecap="round" stroke-linejoin="round"/>
</svg>
