<svg width="20" height="20" viewBox="0 0 20 20" fill="none" xmlns="http://www.w3.org/2000/svg">
<path d="M3.02002 5.06H16.98" stroke="#2F2F2E" stroke-width="1.5" stroke-linecap="round" stroke-linejoin="round"/>
<path fill-rule="evenodd" clip-rule="evenodd" d="M4.82984 5.06H15.4998C15.7705 5.06 15.9898 5.27938 15.9898 5.55V16.21C15.9898 17.0329 15.3227 17.7 14.4998 17.7H5.82984C5.00694 17.7 4.33984 17.0329 4.33984 16.21V5.55C4.33984 5.27938 4.55922 5.06 4.82984 5.06Z" stroke="#2F2F2E" stroke-width="1.5" stroke-linecap="round" stroke-linejoin="round"/>
<path d="M12.2802 1.5H8.05016C7.42055 1.5 6.91016 2.0104 6.91016 2.64V3.92C6.91016 4.5496 7.42055 5.06 8.05016 5.06H12.2802C12.9098 5.06 13.4202 4.5496 13.4202 3.92V2.64C13.4202 2.0104 12.9098 1.5 12.2802 1.5Z" stroke="#2F2F2E" stroke-width="1.5" stroke-linecap="round" stroke-linejoin="round"/>
<path d="M8.2998 8.76999V13.99" stroke="#2F2F2E" stroke-width="1.5" stroke-linecap="round" stroke-linejoin="round"/>
<path d="M12.02 8.79001V14.01" stroke="#2F2F2E" stroke-width="1.5" stroke-linecap="round" stroke-linejoin="round"/>
</svg>
