<svg width="26" height="25" viewBox="0 0 26 25" fill="none" xmlns="http://www.w3.org/2000/svg">
<path d="M13.1199 21.975C18.0539 21.975 22.0537 17.8952 22.0537 12.8625C22.0537 7.8298 18.0539 3.75 13.1199 3.75C8.18584 3.75 4.18604 7.8298 4.18604 12.8625C4.18604 17.8952 8.18584 21.975 13.1199 21.975Z" stroke="white" stroke-width="1.5" stroke-linecap="round" stroke-linejoin="round"/>
<path d="M13.1202 12.6125C14.4468 12.6125 15.5222 11.5156 15.5222 10.1625C15.5222 8.80943 14.4468 7.71252 13.1202 7.71252C11.7937 7.71252 10.7183 8.80943 10.7183 10.1625C10.7183 11.5156 11.7937 12.6125 13.1202 12.6125Z" stroke="white" stroke-width="1.5" stroke-linecap="round" stroke-linejoin="round"/>
<path d="M8.14453 20.0751V18.0501C8.24861 16.7742 9.34428 15.8243 10.5955 15.9251H15.62C16.869 15.8313 17.9605 16.7776 18.071 18.0501V20.0751" stroke="white" stroke-width="1.5" stroke-linecap="round" stroke-linejoin="round"/>
</svg>
